<svg xmlns="http://www.w3.org/2000/svg" viewBox="0 0 512 512" width="512" height="512">
  <rect width="512" height="512" rx="96" fill="#080e1a"/>
  <!-- Drone body -->
  <rect x="208" y="224" width="96" height="64" rx="16" fill="#4afc92"/>
  <!-- Arms -->
  <line x1="224" y1="240" x2="144" y2="176" stroke="#4afc92" stroke-width="12" stroke-linecap="round" opacity="0.7"/>
  <line x1="288" y1="240" x2="368" y2="176" stroke="#4afc92" stroke-width="12" stroke-linecap="round" opacity="0.7"/>
  <line x1="224" y1="272" x2="144" y2="336" stroke="#4afc92" stroke-width="12" stroke-linecap="round" opacity="0.7"/>
  <line x1="288" y1="272" x2="368" y2="336" stroke="#4afc92" stroke-width="12" stroke-linecap="round" opacity="0.7"/>
  <!-- Rotors -->
  <ellipse cx="144" cy="176" rx="56" ry="16" fill="#4afc92" opacity="0.35"/>
  <ellipse cx="368" cy="176" rx="56" ry="16" fill="#4afc92" opacity="0.35"/>
  <ellipse cx="144" cy="336" rx="56" ry="16" fill="#4afc92" opacity="0.35"/>
  <ellipse cx="368" cy="336" rx="56" ry="16" fill="#4afc92" opacity="0.35"/>
  <!-- Motor hubs -->
  <circle cx="144" cy="176" r="20" fill="#4afc92"/>
  <circle cx="368" cy="176" r="20" fill="#4afc92"/>
  <circle cx="144" cy="336" r="20" fill="#4afc92"/>
  <circle cx="368" cy="336" r="20" fill="#4afc92"/>
  <!-- Camera -->
  <circle cx="256" cy="296" r="16" fill="#080e1a" stroke="#4afc92" stroke-width="5"/>
  <!-- LED -->
  <circle cx="256" cy="224" r="8" fill="#fbbf24"/>
</svg>
